<mxfile host="app.diagrams.net" agent="Mozilla/5.0 (Macintosh; Intel Mac OS X 10_15_7) AppleWebKit/537.36 (KHTML, like Gecko) Chrome/133.0.0.0 Safari/537.36" version="26.0.16">
  <diagram name="第 1 页" id="WEVsxDl_lPedR6Gp7m13">
    <mxGraphModel dx="2074" dy="1121" grid="1" gridSize="10" guides="1" tooltips="1" connect="1" arrows="1" fold="1" page="0" pageScale="1" pageWidth="827" pageHeight="1169" math="0" shadow="0">
      <root>
        <mxCell id="0" />
        <mxCell id="1" parent="0" />
        <mxCell id="cf5Hu1HwBuPEVgfERSGL-36" value="" style="edgeStyle=orthogonalEdgeStyle;rounded=0;orthogonalLoop=1;jettySize=auto;html=1;" edge="1" parent="1" source="cf5Hu1HwBuPEVgfERSGL-30" target="cf5Hu1HwBuPEVgfERSGL-14">
          <mxGeometry relative="1" as="geometry" />
        </mxCell>
        <mxCell id="cf5Hu1HwBuPEVgfERSGL-30" value="" style="rounded=0;whiteSpace=wrap;html=1;fillColor=none;dashed=1;dashPattern=8 8;" vertex="1" parent="1">
          <mxGeometry x="195" y="220" width="310" height="580" as="geometry" />
        </mxCell>
        <mxCell id="cf5Hu1HwBuPEVgfERSGL-35" value="" style="edgeStyle=orthogonalEdgeStyle;rounded=0;orthogonalLoop=1;jettySize=auto;html=1;" edge="1" parent="1" source="cf5Hu1HwBuPEVgfERSGL-1" target="cf5Hu1HwBuPEVgfERSGL-30">
          <mxGeometry relative="1" as="geometry" />
        </mxCell>
        <mxCell id="cf5Hu1HwBuPEVgfERSGL-1" value="&lt;div&gt;&lt;b&gt;&lt;font style=&quot;font-size: 14px;&quot;&gt;launcher&lt;/font&gt;&lt;/b&gt;&lt;/div&gt;&lt;div&gt;&lt;b&gt;&lt;br&gt;&lt;/b&gt;&lt;/div&gt;Component" style="html=1;dropTarget=0;whiteSpace=wrap;" vertex="1" parent="1">
          <mxGeometry y="465" width="130" height="90" as="geometry" />
        </mxCell>
        <mxCell id="cf5Hu1HwBuPEVgfERSGL-2" value="" style="shape=module;jettyWidth=8;jettyHeight=4;" vertex="1" parent="cf5Hu1HwBuPEVgfERSGL-1">
          <mxGeometry x="1" width="20" height="20" relative="1" as="geometry">
            <mxPoint x="-27" y="7" as="offset" />
          </mxGeometry>
        </mxCell>
        <mxCell id="cf5Hu1HwBuPEVgfERSGL-3" value="&lt;div&gt;&lt;b&gt;&lt;font style=&quot;font-size: 14px;&quot;&gt;user-interface-web&lt;/font&gt;&lt;/b&gt;&lt;/div&gt;&lt;div&gt;&lt;b&gt;&lt;br&gt;&lt;/b&gt;&lt;/div&gt;Component" style="html=1;dropTarget=0;whiteSpace=wrap;" vertex="1" parent="1">
          <mxGeometry x="260" y="270" width="180" height="90" as="geometry" />
        </mxCell>
        <mxCell id="cf5Hu1HwBuPEVgfERSGL-4" value="" style="shape=module;jettyWidth=8;jettyHeight=4;" vertex="1" parent="cf5Hu1HwBuPEVgfERSGL-3">
          <mxGeometry x="1" width="20" height="20" relative="1" as="geometry">
            <mxPoint x="-27" y="7" as="offset" />
          </mxGeometry>
        </mxCell>
        <mxCell id="cf5Hu1HwBuPEVgfERSGL-5" value="&lt;div&gt;&lt;b&gt;&lt;font style=&quot;font-size: 14px;&quot;&gt;user-interface-provider&lt;/font&gt;&lt;/b&gt;&lt;/div&gt;&lt;div&gt;&lt;b&gt;&lt;br&gt;&lt;/b&gt;&lt;/div&gt;Component" style="html=1;dropTarget=0;whiteSpace=wrap;" vertex="1" parent="1">
          <mxGeometry x="260" y="400" width="180" height="90" as="geometry" />
        </mxCell>
        <mxCell id="cf5Hu1HwBuPEVgfERSGL-6" value="" style="shape=module;jettyWidth=8;jettyHeight=4;" vertex="1" parent="cf5Hu1HwBuPEVgfERSGL-5">
          <mxGeometry x="1" width="20" height="20" relative="1" as="geometry">
            <mxPoint x="-27" y="7" as="offset" />
          </mxGeometry>
        </mxCell>
        <mxCell id="cf5Hu1HwBuPEVgfERSGL-7" value="&lt;div&gt;&lt;b&gt;&lt;font style=&quot;font-size: 14px;&quot;&gt;user-interface-subscriber&lt;/font&gt;&lt;/b&gt;&lt;/div&gt;&lt;div&gt;&lt;b&gt;&lt;br&gt;&lt;/b&gt;&lt;/div&gt;Component" style="html=1;dropTarget=0;whiteSpace=wrap;" vertex="1" parent="1">
          <mxGeometry x="260" y="530" width="180" height="90" as="geometry" />
        </mxCell>
        <mxCell id="cf5Hu1HwBuPEVgfERSGL-8" value="" style="shape=module;jettyWidth=8;jettyHeight=4;" vertex="1" parent="cf5Hu1HwBuPEVgfERSGL-7">
          <mxGeometry x="1" width="20" height="20" relative="1" as="geometry">
            <mxPoint x="-27" y="7" as="offset" />
          </mxGeometry>
        </mxCell>
        <mxCell id="cf5Hu1HwBuPEVgfERSGL-9" value="&lt;div&gt;&lt;b&gt;&lt;font style=&quot;font-size: 14px;&quot;&gt;user-interface-worker&lt;/font&gt;&lt;/b&gt;&lt;/div&gt;&lt;div&gt;&lt;b&gt;&lt;br&gt;&lt;/b&gt;&lt;/div&gt;Component" style="html=1;dropTarget=0;whiteSpace=wrap;" vertex="1" parent="1">
          <mxGeometry x="260" y="660" width="180" height="90" as="geometry" />
        </mxCell>
        <mxCell id="cf5Hu1HwBuPEVgfERSGL-10" value="" style="shape=module;jettyWidth=8;jettyHeight=4;" vertex="1" parent="cf5Hu1HwBuPEVgfERSGL-9">
          <mxGeometry x="1" width="20" height="20" relative="1" as="geometry">
            <mxPoint x="-27" y="7" as="offset" />
          </mxGeometry>
        </mxCell>
        <mxCell id="cf5Hu1HwBuPEVgfERSGL-37" value="" style="edgeStyle=orthogonalEdgeStyle;rounded=0;orthogonalLoop=1;jettySize=auto;html=1;" edge="1" parent="1" source="cf5Hu1HwBuPEVgfERSGL-14" target="cf5Hu1HwBuPEVgfERSGL-31">
          <mxGeometry relative="1" as="geometry" />
        </mxCell>
        <mxCell id="cf5Hu1HwBuPEVgfERSGL-39" style="edgeStyle=orthogonalEdgeStyle;rounded=0;orthogonalLoop=1;jettySize=auto;html=1;entryX=0.5;entryY=0;entryDx=0;entryDy=0;" edge="1" parent="1" source="cf5Hu1HwBuPEVgfERSGL-14" target="cf5Hu1HwBuPEVgfERSGL-16">
          <mxGeometry relative="1" as="geometry" />
        </mxCell>
        <mxCell id="cf5Hu1HwBuPEVgfERSGL-14" value="&lt;div&gt;&lt;span style=&quot;font-size: 14px;&quot;&gt;&lt;b&gt;application&lt;/b&gt;&lt;/span&gt;&lt;/div&gt;&lt;div&gt;&lt;span style=&quot;font-size: 14px;&quot;&gt;&lt;b&gt;&lt;br&gt;&lt;/b&gt;&lt;/span&gt;&lt;/div&gt;Component" style="html=1;dropTarget=0;whiteSpace=wrap;" vertex="1" parent="1">
          <mxGeometry x="620" y="465" width="130" height="90" as="geometry" />
        </mxCell>
        <mxCell id="cf5Hu1HwBuPEVgfERSGL-15" value="" style="shape=module;jettyWidth=8;jettyHeight=4;" vertex="1" parent="cf5Hu1HwBuPEVgfERSGL-14">
          <mxGeometry x="1" width="20" height="20" relative="1" as="geometry">
            <mxPoint x="-27" y="7" as="offset" />
          </mxGeometry>
        </mxCell>
        <mxCell id="cf5Hu1HwBuPEVgfERSGL-16" value="&lt;div&gt;&lt;b&gt;&lt;font style=&quot;font-size: 14px;&quot;&gt;domain&lt;/font&gt;&lt;/b&gt;&lt;/div&gt;&lt;div&gt;&lt;b&gt;&lt;br&gt;&lt;/b&gt;&lt;/div&gt;Component" style="html=1;dropTarget=0;whiteSpace=wrap;" vertex="1" parent="1">
          <mxGeometry x="620" y="630" width="130" height="90" as="geometry" />
        </mxCell>
        <mxCell id="cf5Hu1HwBuPEVgfERSGL-17" value="" style="shape=module;jettyWidth=8;jettyHeight=4;" vertex="1" parent="cf5Hu1HwBuPEVgfERSGL-16">
          <mxGeometry x="1" width="20" height="20" relative="1" as="geometry">
            <mxPoint x="-27" y="7" as="offset" />
          </mxGeometry>
        </mxCell>
        <mxCell id="cf5Hu1HwBuPEVgfERSGL-20" value="&lt;div&gt;&lt;span style=&quot;font-size: 14px;&quot;&gt;&lt;b&gt;infrastructure-repo&lt;/b&gt;&lt;/span&gt;&lt;/div&gt;&lt;div&gt;&lt;span style=&quot;font-size: 14px;&quot;&gt;&lt;b&gt;&lt;br&gt;&lt;/b&gt;&lt;/span&gt;&lt;/div&gt;Component" style="html=1;dropTarget=0;whiteSpace=wrap;" vertex="1" parent="1">
          <mxGeometry x="870" y="270" width="180" height="90" as="geometry" />
        </mxCell>
        <mxCell id="cf5Hu1HwBuPEVgfERSGL-21" value="" style="shape=module;jettyWidth=8;jettyHeight=4;" vertex="1" parent="cf5Hu1HwBuPEVgfERSGL-20">
          <mxGeometry x="1" width="20" height="20" relative="1" as="geometry">
            <mxPoint x="-27" y="7" as="offset" />
          </mxGeometry>
        </mxCell>
        <mxCell id="cf5Hu1HwBuPEVgfERSGL-24" value="&lt;div&gt;&lt;span style=&quot;font-size: 14px;&quot;&gt;&lt;b&gt;infrastructure-gateway&lt;/b&gt;&lt;/span&gt;&lt;/div&gt;&lt;div&gt;&lt;span style=&quot;font-size: 14px;&quot;&gt;&lt;b&gt;&lt;br&gt;&lt;/b&gt;&lt;/span&gt;&lt;/div&gt;Component" style="html=1;dropTarget=0;whiteSpace=wrap;" vertex="1" parent="1">
          <mxGeometry x="870" y="530" width="180" height="90" as="geometry" />
        </mxCell>
        <mxCell id="cf5Hu1HwBuPEVgfERSGL-25" value="" style="shape=module;jettyWidth=8;jettyHeight=4;" vertex="1" parent="cf5Hu1HwBuPEVgfERSGL-24">
          <mxGeometry x="1" width="20" height="20" relative="1" as="geometry">
            <mxPoint x="-27" y="7" as="offset" />
          </mxGeometry>
        </mxCell>
        <mxCell id="cf5Hu1HwBuPEVgfERSGL-26" value="&lt;div&gt;&lt;span style=&quot;font-size: 14px;&quot;&gt;&lt;b&gt;infrastructure-cache&lt;/b&gt;&lt;/span&gt;&lt;/div&gt;&lt;div&gt;&lt;span style=&quot;font-size: 14px;&quot;&gt;&lt;b&gt;&lt;br&gt;&lt;/b&gt;&lt;/span&gt;&lt;/div&gt;Component" style="html=1;dropTarget=0;whiteSpace=wrap;" vertex="1" parent="1">
          <mxGeometry x="870" y="400" width="180" height="90" as="geometry" />
        </mxCell>
        <mxCell id="cf5Hu1HwBuPEVgfERSGL-27" value="" style="shape=module;jettyWidth=8;jettyHeight=4;" vertex="1" parent="cf5Hu1HwBuPEVgfERSGL-26">
          <mxGeometry x="1" width="20" height="20" relative="1" as="geometry">
            <mxPoint x="-27" y="7" as="offset" />
          </mxGeometry>
        </mxCell>
        <mxCell id="cf5Hu1HwBuPEVgfERSGL-28" value="&lt;div&gt;&lt;span style=&quot;font-size: 14px;&quot;&gt;&lt;b&gt;infrastructure-publisher&lt;/b&gt;&lt;/span&gt;&lt;/div&gt;&lt;div&gt;&lt;span style=&quot;font-size: 14px;&quot;&gt;&lt;b&gt;&lt;br&gt;&lt;/b&gt;&lt;/span&gt;&lt;/div&gt;Component" style="html=1;dropTarget=0;whiteSpace=wrap;" vertex="1" parent="1">
          <mxGeometry x="870" y="660" width="180" height="90" as="geometry" />
        </mxCell>
        <mxCell id="cf5Hu1HwBuPEVgfERSGL-29" value="" style="shape=module;jettyWidth=8;jettyHeight=4;" vertex="1" parent="cf5Hu1HwBuPEVgfERSGL-28">
          <mxGeometry x="1" width="20" height="20" relative="1" as="geometry">
            <mxPoint x="-27" y="7" as="offset" />
          </mxGeometry>
        </mxCell>
        <mxCell id="cf5Hu1HwBuPEVgfERSGL-31" value="" style="rounded=0;whiteSpace=wrap;html=1;fillColor=none;dashed=1;dashPattern=8 8;" vertex="1" parent="1">
          <mxGeometry x="805" y="220" width="310" height="580" as="geometry" />
        </mxCell>
        <mxCell id="cf5Hu1HwBuPEVgfERSGL-40" style="edgeStyle=orthogonalEdgeStyle;rounded=0;orthogonalLoop=1;jettySize=auto;html=1;entryX=0.454;entryY=1;entryDx=0;entryDy=0;entryPerimeter=0;" edge="1" parent="1" source="cf5Hu1HwBuPEVgfERSGL-31" target="cf5Hu1HwBuPEVgfERSGL-16">
          <mxGeometry relative="1" as="geometry">
            <Array as="points">
              <mxPoint x="960" y="820" />
              <mxPoint x="679" y="820" />
            </Array>
          </mxGeometry>
        </mxCell>
      </root>
    </mxGraphModel>
  </diagram>
</mxfile>
